<?xml version="1.0" encoding="UTF-8" standalone="no"?><!-- Generator: Gravit.io --><svg xmlns="http://www.w3.org/2000/svg" xmlns:xlink="http://www.w3.org/1999/xlink" style="isolation:isolate" viewBox="0 0 1178.3 966.8" width="1178.3pt" height="966.8pt"><defs><clipPath id="_clipPath_l4AnPBY7y0TsZIbh3ZccjskC66AgNuYv"><rect width="1178.3" height="966.8"/></clipPath></defs><g clip-path="url(#_clipPath_l4AnPBY7y0TsZIbh3ZccjskC66AgNuYv)"><path d=" M 933.12 244.662 L 756.375 82.528 L 731.513 109.629 L 878.8 244.662 L 298.252 244.662 L 445.539 109.511 L 420.677 82.41 L 243.932 244.662 L 243.814 244.662 L 243.814 351.534 C 243.814 399.844 290.357 439.199 347.505 439.199 L 456.497 439.199 C 513.645 439.199 560.188 399.844 560.188 351.534 L 560.188 281.425 L 616.746 281.425 L 616.746 351.652 C 616.746 399.962 663.289 439.317 720.437 439.317 L 829.429 439.317 C 886.577 439.317 933.12 399.962 933.12 351.652 L 933.12 244.662 Z " fill="rgb(74,134,232)"/><g clip-path="url(#_clipPath_PFBmE3kFZacRekaLvhsmS2n0HyZ8UlCx)"><text transform="matrix(1,0,0,1,238.482,587.43)" style="font-family:'Orbitron';font-weight:600;font-size:130px;font-style:normal;fill:#494368;stroke:none;">awesome</text><text transform="matrix(1,0,0,1,305.302,750.45)" style="font-family:'Orbitron';font-weight:500;font-size:130px;font-style:normal;fill:#494368;stroke:none;">seastar</text></g><defs><clipPath id="_clipPath_PFBmE3kFZacRekaLvhsmS2n0HyZ8UlCx"><rect x="0" y="0" width="723.831" height="311" transform="matrix(1,0,0,1,226.551,456)"/></clipPath></defs><path d=" M 444.81 412.821 L 395.696 388.036 L 347.435 414.445 L 355.829 360.075 L 315.8 322.337 L 370.102 313.519 L 393.624 263.787 L 418.79 312.707 L 473.356 319.709 L 434.608 358.761 L 444.81 412.821 Z " fill="rgb(238,235,232)"/><path d=" M 824.027 413.821 L 774.913 389.036 L 726.652 415.445 L 735.046 361.075 L 695.017 323.337 L 749.319 314.519 L 772.84 264.787 L 798.007 313.707 L 852.573 320.709 L 813.824 359.761 L 824.027 413.821 Z " fill="rgb(238,235,232)"/><g clip-path="url(#_clipPath_IJVB5yR4CrXJNdRzAqocCUhVqrNohusC)"><text transform="matrix(1,0,0,1,43.092,866.16)" style="font-family:'Orienta';font-weight:400;font-size:46px;font-style:normal;fill:#494368;stroke:none;">Curating the best Seastar resources and projects</text></g><defs><clipPath id="_clipPath_IJVB5yR4CrXJNdRzAqocCUhVqrNohusC"><rect x="0" y="0" width="1090.751" height="57" transform="matrix(1,0,0,1,43.092,822)"/></clipPath></defs></g></svg>